<svg xmlns="http://www.w3.org/2000/svg" viewBox="0 0 1200 480" role="img" aria-label="containersclub hero illustration">
  <defs>
    <linearGradient id="g1" x1="0" y1="0" x2="1" y2="1">
      <stop offset="0%" stop-color="#14b8a6"/>
      <stop offset="100%" stop-color="#60a5fa"/>
    </linearGradient>
    <linearGradient id="g2" x1="0" y1="0" x2="0" y2="1">
      <stop offset="0%" stop-color="#0ea5e9" stop-opacity=".15"/>
      <stop offset="100%" stop-color="#14b8a6" stop-opacity=".05"/>
    </linearGradient>
  </defs>
  <rect x="24" y="24" width="1152" height="432" rx="28" fill="url(#g2)" stroke="url(#g1)" stroke-width="4"/>
  <path d="M80 360 C 220 220, 360 220, 500 330 S 840 420, 1120 220" fill="none" stroke="url(#g1)" stroke-width="6" opacity=".85"/>
  <g fill="#14b8a6">
    <circle cx="80" cy="360" r="8"/>
    <circle cx="500" cy="330" r="8"/>
    <circle cx="1120" cy="220" r="8"/>
  </g>
  <g fill="url(#g1)" opacity=".9">
    <rect x="170" y="280" width="64" height="24" rx="4"/>
    <rect x="238" y="280" width="64" height="24" rx="4"/>
    <rect x="306" y="280" width="64" height="24" rx="4"/>
    <rect x="720" y="180" width="72" height="26" rx="4"/>
    <rect x="798" y="180" width="72" height="26" rx="4"/>
    <rect x="876" y="180" width="72" height="26" rx="4"/>
  </g>
  <text x="80" y="120" font-size="42" font-weight="700" fill="#e5f3ff">containersclub</text>
  <text x="80" y="160" font-size="22" fill="#b7c3d7">Realtime visibility, slot booking, gate automation & depot ops for US.</text>
</svg>
